<svg xmlns="http://www.w3.org/2000/svg" width="26" height="26" viewBox="0 0 26 26"><path d="M18.8125 2.03125A.95009499.95009499.0 0018.0625 3V22a.95009499.95009499.0 101.875.0V3a.95009499.95009499.0 00-1.03125-.96875.95009499.95009499.0 00-.09375.0zm-12 1A.95009499.95009499.0 006.0625 4V21a.95009499.95009499.0 101.875.0V4A.95009499.95009499.0 006.90625 3.03125a.95009499.95009499.0 00-.09375.0zm9 3A.95009499.95009499.0 0015.0625 7V18a.95009499.95009499.0 101.875.0V7a.95009499.95009499.0 00-1.03125-.96875.95009499.95009499.0 00-.09375.0zm-12 1A.95009499.95009499.0 003.0625 8v9a.95009499.95009499.0 101.875.0V8A.95009499.95009499.0 003.90625 7.03125a.95009499.95009499.0 00-.09375.0zm6 1A.95009499.95009499.0 009.0625 9v7a.95009499.95009499.0 101.875.0V9A.95009499.95009499.0 009.90625 8.03125a.95009499.95009499.0 00-.09375.0zm12 0A.95009499.95009499.0 0021.0625 9v7a.95009499.95009499.0 101.875.0V9a.95009499.95009499.0 00-1.03125-.96875.95009499.95009499.0 00-.09375.0zm-21 2A.95009499.95009499.0 00.0625 11v3a.95009499.95009499.0 101.875.0V11A.95009499.95009499.0 00.90625 10.03125a.95009499.95009499.0 00-.09375.0zm12 0A.95009499.95009499.0 0012.0625 11v3a.95009499.95009499.0 101.875.0V11a.95009499.95009499.0 00-1.03125-.96875.95009499.95009499.0 00-.09375.0zm12 0A.95009499.95009499.0 0024.0625 11v3a.95009499.95009499.0 101.875.0V11a.95009499.95009499.0 00-1.03125-.96875.95009499.95009499.0 00-.09375.0z"/></svg>